# xmcd CD database file generated by OrangeCD 5.2
#
# Track frame offsets:
#	150
#	10882
#	20795
#	31976
#	43098
#	52647
#	63426
#	73976
#	83736
#	97532
#	109402
#	122007
#	138086
#	150013
#	163844
#	177393
#	188231
#	200401
#	210500
#	221669
#	235181
#	247631
#	258320
#
# Disc length: 3572 seconds
#
# Revision: 1
# Processed by: cddbd v1.5.1PL2 Copyright (c) Steve Scherf et al.
# Submitted via: OrangeCD 5.2
#
DISCID=2e0df217
DTITLE=Don Gibson - The Singer - The Songwriter 1966 - 1969 Disc 2
DYEAR=1900
DGENRE=Country
TTITLE0=Forget Me
TTITLE1=Funny, Familliar, Forgotten Feelings
TTITLE2=Just To Hurt Me
TTITLE3=Losing Your Love
TTITLE4=The Chance I Had To Take
TTITLE5=Run Along Blues
TTITLE6=No Doubt About It
TTITLE7=All My Love
TTITLE8=There'll Be No Teardrops Tonight
TTITLE9=Where Is Your Heart Tonight
TTITLE10=This Cold War With You
TTITLE11=We Live In Two Different Worlds
TTITLE12=It's A Sin
TTITLE13=(I'll Let My Heart Break) For A Little While
TTITLE14=Faded Love
TTITLE15=Ashes Of Love
TTITLE16=They'll Never Take Her Love From Me
TTITLE17=What Locks The Door
TTITLE18=Headin' Down The Wrong Highway
TTITLE19=Good Morning, Dear
TTITLE20=It's A Long, Long Way To Georgia
TTITLE21=I Just Said Goodbye To My Dreams
TTITLE22=Low And Lonely
EXTD=
EXTT0=
EXTT1=
EXTT2=
EXTT3=
EXTT4=
EXTT5=
EXTT6=
EXTT7=
EXTT8=
EXTT9=
EXTT10=
EXTT11=
EXTT12=
EXTT13=
EXTT14=
EXTT15=
EXTT16=
EXTT17=
EXTT18=
EXTT19=
EXTT20=
EXTT21=
EXTT22=
PLAYORDER=
